<svg xmlns="http://www.w3.org/2000/svg" width="882" height="418" viewBox="0 0 882 418" font-family="-apple-system, Segoe UI, Helvetica, Arial, sans-serif">
<rect width="882" height="418" fill="#ffffff"/>
<text x="170" y="40" font-size="21" font-weight="600" fill="#111">FixIt patch apply rate</text>
<text x="170" y="66" font-size="13" fill="#555">3 context lines each side, 1103-line file, 200 trials per cell, well-formed diffs</text>
<text x="170" y="92" font-size="12" fill="#777">declared-position drift (lines, both directions)</text>
<text x="218" y="106" font-size="13" text-anchor="middle" fill="#333">0</text>
<text x="314" y="106" font-size="13" text-anchor="middle" fill="#333">+1</text>
<text x="410" y="106" font-size="13" text-anchor="middle" fill="#333">+2</text>
<text x="506" y="106" font-size="13" text-anchor="middle" fill="#333">+5</text>
<text x="602" y="106" font-size="13" text-anchor="middle" fill="#333">+10</text>
<text x="698" y="106" font-size="13" text-anchor="middle" fill="#333">+20</text>
<text x="794" y="106" font-size="13" text-anchor="middle" fill="#333">+50</text>
<text x="156" y="149" font-size="13" text-anchor="end" fill="#333">exact</text>
<rect x="170" y="118" width="90" height="46" rx="4" fill="#2e7d32"/>
<text x="215" y="149" font-size="15" font-weight="600" text-anchor="middle" fill="#1a1a1a">100%</text>
<rect x="266" y="118" width="90" height="46" rx="4" fill="#2e7d32"/>
<text x="311" y="149" font-size="15" font-weight="600" text-anchor="middle" fill="#1a1a1a">100%</text>
<rect x="362" y="118" width="90" height="46" rx="4" fill="#2e7d32"/>
<text x="407" y="149" font-size="15" font-weight="600" text-anchor="middle" fill="#1a1a1a">100%</text>
<rect x="458" y="118" width="90" height="46" rx="4" fill="#2e7d32"/>
<text x="503" y="149" font-size="15" font-weight="600" text-anchor="middle" fill="#1a1a1a">100%</text>
<rect x="554" y="118" width="90" height="46" rx="4" fill="#2e7d32"/>
<text x="599" y="149" font-size="15" font-weight="600" text-anchor="middle" fill="#1a1a1a">100%</text>
<rect x="650" y="118" width="90" height="46" rx="4" fill="#2e7d32"/>
<text x="695" y="149" font-size="15" font-weight="600" text-anchor="middle" fill="#1a1a1a">100%</text>
<rect x="746" y="118" width="90" height="46" rx="4" fill="#337f32"/>
<text x="791" y="149" font-size="15" font-weight="600" text-anchor="middle" fill="#1a1a1a">100%</text>
<text x="156" y="201" font-size="13" text-anchor="end" fill="#333">trailing ws</text>
<rect x="170" y="170" width="90" height="46" rx="4" fill="#2e7d32"/>
<text x="215" y="201" font-size="15" font-weight="600" text-anchor="middle" fill="#1a1a1a">100%</text>
<rect x="266" y="170" width="90" height="46" rx="4" fill="#2e7d32"/>
<text x="311" y="201" font-size="15" font-weight="600" text-anchor="middle" fill="#1a1a1a">100%</text>
<rect x="362" y="170" width="90" height="46" rx="4" fill="#2e7d32"/>
<text x="407" y="201" font-size="15" font-weight="600" text-anchor="middle" fill="#1a1a1a">100%</text>
<rect x="458" y="170" width="90" height="46" rx="4" fill="#2e7d32"/>
<text x="503" y="201" font-size="15" font-weight="600" text-anchor="middle" fill="#1a1a1a">100%</text>
<rect x="554" y="170" width="90" height="46" rx="4" fill="#2e7d32"/>
<text x="599" y="201" font-size="15" font-weight="600" text-anchor="middle" fill="#1a1a1a">100%</text>
<rect x="650" y="170" width="90" height="46" rx="4" fill="#2e7d32"/>
<text x="695" y="201" font-size="15" font-weight="600" text-anchor="middle" fill="#1a1a1a">100%</text>
<rect x="746" y="170" width="90" height="46" rx="4" fill="#337f32"/>
<text x="791" y="201" font-size="15" font-weight="600" text-anchor="middle" fill="#1a1a1a">100%</text>
<text x="156" y="253" font-size="13" text-anchor="end" fill="#333">missing ctx</text>
<rect x="170" y="222" width="90" height="46" rx="4" fill="#2e7d32"/>
<text x="215" y="253" font-size="15" font-weight="600" text-anchor="middle" fill="#1a1a1a">100%</text>
<rect x="266" y="222" width="90" height="46" rx="4" fill="#2e7d32"/>
<text x="311" y="253" font-size="15" font-weight="600" text-anchor="middle" fill="#1a1a1a">100%</text>
<rect x="362" y="222" width="90" height="46" rx="4" fill="#2e7d32"/>
<text x="407" y="253" font-size="15" font-weight="600" text-anchor="middle" fill="#1a1a1a">100%</text>
<rect x="458" y="222" width="90" height="46" rx="4" fill="#2e7d32"/>
<text x="503" y="253" font-size="15" font-weight="600" text-anchor="middle" fill="#1a1a1a">100%</text>
<rect x="554" y="222" width="90" height="46" rx="4" fill="#2e7d32"/>
<text x="599" y="253" font-size="15" font-weight="600" text-anchor="middle" fill="#1a1a1a">100%</text>
<rect x="650" y="222" width="90" height="46" rx="4" fill="#2e7d32"/>
<text x="695" y="253" font-size="15" font-weight="600" text-anchor="middle" fill="#1a1a1a">100%</text>
<rect x="746" y="222" width="90" height="46" rx="4" fill="#337f32"/>
<text x="791" y="253" font-size="15" font-weight="600" text-anchor="middle" fill="#1a1a1a">100%</text>
<text x="156" y="305" font-size="13" text-anchor="end" fill="#333">extra ctx</text>
<rect x="170" y="274" width="90" height="46" rx="4" fill="#2e7d32"/>
<text x="215" y="305" font-size="15" font-weight="600" text-anchor="middle" fill="#1a1a1a">100%</text>
<rect x="266" y="274" width="90" height="46" rx="4" fill="#2e7d32"/>
<text x="311" y="305" font-size="15" font-weight="600" text-anchor="middle" fill="#1a1a1a">100%</text>
<rect x="362" y="274" width="90" height="46" rx="4" fill="#2e7d32"/>
<text x="407" y="305" font-size="15" font-weight="600" text-anchor="middle" fill="#1a1a1a">100%</text>
<rect x="458" y="274" width="90" height="46" rx="4" fill="#2e7d32"/>
<text x="503" y="305" font-size="15" font-weight="600" text-anchor="middle" fill="#1a1a1a">100%</text>
<rect x="554" y="274" width="90" height="46" rx="4" fill="#2e7d32"/>
<text x="599" y="305" font-size="15" font-weight="600" text-anchor="middle" fill="#1a1a1a">100%</text>
<rect x="650" y="274" width="90" height="46" rx="4" fill="#2e7d32"/>
<text x="695" y="305" font-size="15" font-weight="600" text-anchor="middle" fill="#1a1a1a">100%</text>
<rect x="746" y="274" width="90" height="46" rx="4" fill="#358032"/>
<text x="791" y="305" font-size="15" font-weight="600" text-anchor="middle" fill="#1a1a1a">99%</text>
<text x="170" y="354" font-size="12" fill="#555">apply rate (hunk applied AND landed on the replaced line)</text>
<rect x="170" y="364" width="26" height="14" fill="#b42318"/>
<rect x="196" y="364" width="26" height="14" fill="#bd3614"/>
<rect x="222" y="364" width="26" height="14" fill="#c6480f"/>
<rect x="248" y="364" width="26" height="14" fill="#cf5b0b"/>
<rect x="274" y="364" width="26" height="14" fill="#d86e07"/>
<rect x="300" y="364" width="26" height="14" fill="#e18102"/>
<rect x="326" y="364" width="26" height="14" fill="#e89209"/>
<rect x="352" y="364" width="26" height="14" fill="#eba31a"/>
<rect x="378" y="364" width="26" height="14" fill="#efb32c"/>
<rect x="404" y="364" width="26" height="14" fill="#e0ba39"/>
<rect x="430" y="364" width="26" height="14" fill="#879b36"/>
<rect x="456" y="364" width="26" height="14" fill="#2e7d32"/>
<text x="170" y="396" font-size="11" fill="#777">0%</text>
<text x="482" y="396" font-size="11" fill="#777" text-anchor="end">100%</text>
<text x="842" y="398" font-size="11" fill="#999" text-anchor="end">max_drift=200 gate=0.8 fuzzy_line_threshold=0.8 · generated by tools/matrix.cpp</text>
</svg>
